<?xml version="1.0"?><svg height="512" id="Layer_1" version="1.1" viewBox="0 0 512 512" width="512" xml:space="preserve" xmlns="http://www.w3.org/2000/svg" xmlns:cc="http://creativecommons.org/ns#" xmlns:dc="http://purl.org/dc/elements/1.1/" xmlns:inkscape="http://www.inkscape.org/namespaces/inkscape" xmlns:rdf="http://www.w3.org/1999/02/22-rdf-syntax-ns#" xmlns:sodipodi="http://sodipodi.sourceforge.net/DTD/sodipodi-0.dtd" xmlns:svg="http://www.w3.org/2000/svg"><defs id="defs12"/><g id="g3618"><rect height="512" id="rect2987" rx="64" ry="64" style="fill:#98c932;fill-opacity:1;fill-rule:nonzero;stroke:none" width="512" x="0" y="0"/><path d="m 217.75563,85.999995 c 0,16.582225 -17.3156,30.008875 -38.6445,30.008875 -21.35551,0 -38.68001,-13.42665 -38.68001,-30.008875 0,-16.56445 17.3245,-30 38.68001,-30 21.3289,0 38.6445,13.43555 38.6445,30 z m 135.32,-30 c -21.3289,0 -38.6667,13.43555 -38.6667,30 0,16.582225 17.3334,30.008875 38.6667,30.008875 21.3511,0 38.6667,-13.42665 38.6667,-30.008875 0,-16.56445 -17.3156,-30 -38.6667,-30 z M 456.00003,208.51554 C 456.00003,238.05332 389.90233,456 219.96453,456 50.035623,456 31.133423,296.22667 78.351124,197.73776 c 9.44,-19.71555 18.88,-21.72 18.88,-21.72 H 427.66673 c 0,0 28.3333,2.92445 28.3333,32.49778 z m -40.0622,7.50667 H 112.88452 c -20.013396,40 -28.186696,104.15112 -1.3778,149.51112 24.7689,41.80445 72.64001,50.53778 108.45781,50.53778 128.8578,0 186.3867,-160.0489 195.9733,-200.0489 z" id="SmugMug" style="fill:#ffffff;fill-opacity:1"/></g></svg>